<svg xmlns="http://www.w3.org/2000/svg" version="1.1" xmlns:xlink="http://www.w3.org/1999/xlink" xmlns:svgjs="http://svgjs.dev/svgjs" viewBox="0 0 5.30484375 5.30484375"><g transform="matrix(1,0,0,1,1.560380859375,1.5420703125)"><rect width="5.30484375" height="5.30484375" x="-1.560380859375" y="-1.5420703125" fill="#ffffff"></rect><g transform="matrix(1,0,0,1,0,0)"><g clip-path="url(#SvgjsClipPath1004)"><path d=" M -0.3604757254464286 -1.1 L 2.544557756696429 -1.1 C 2.9630984094821433 -1.1 3.302392578125 -0.760705831357143 3.302392578125 -0.3421651785714286 L 3.302392578125 2.562868303571429 C 3.302392578125 2.9814089563571433 2.9630984094821433 3.320703125 2.544557756696429 3.320703125 L -0.3604757254464286 3.320703125 C -0.779016378232143 3.320703125 -1.118310546875 2.9814089563571433 -1.118310546875 2.562868303571429 L -1.118310546875 -0.3421651785714286 C -1.118310546875 -0.760705831357143 -0.779016378232143 -1.1 -0.3604757254464286 -1.1 Z" fill="#03001c" transform="matrix(1,0,0,1,0,0)" fill-rule="nonzero"></path></g></g><g transform="matrix(1,0,0,1,0,0)"><path d=" M 1.30810546875 1.8193359375 L 1.529296875 1.8193359375 L 1.4296875 1.5 L 0.7470703125 1.5 L 0.6474609375 1.8193359375 L 0.8818359375 1.8193359375 L 0.8818359375 2.220703125 L 0.03955078125 2.220703125 L 0.03955078125 1.8193359375 L 0.205078125 1.8193359375 L 0.81005859375 0 L 1.3974609375 0 L 1.9892578125 1.8193359375 L 2.150390625 1.8193359375 L 2.150390625 2.220703125 L 1.30810546875 2.220703125 L 1.30810546875 1.8193359375 M 0.86279296875 1.125 L 1.31103515625 1.125 L 1.08544921875 0.40283203125 L 0.86279296875 1.125" fill="#ffffff" fill-rule="nonzero"></path></g><g transform="matrix(1,0,0,1,0,0)"></g></g><defs><clipPath id="SvgjsClipPath1004"><path d=" M -1.118310546875 -1.1 h 4.420703125 v 4.420703125 h -4.420703125 Z"></path></clipPath></defs></svg>